<?xml version="1.0" encoding="UTF-8" standalone="no"?>
<!-- Created with Inkscape (http://www.inkscape.org/) -->

<svg
   xmlns:dc="http://purl.org/dc/elements/1.1/"
   xmlns:cc="http://creativecommons.org/ns#"
   xmlns:rdf="http://www.w3.org/1999/02/22-rdf-syntax-ns#"
   xmlns:svg="http://www.w3.org/2000/svg"
   xmlns="http://www.w3.org/2000/svg"
   xmlns:sodipodi="http://sodipodi.sourceforge.net/DTD/sodipodi-0.dtd"
   xmlns:inkscape="http://www.inkscape.org/namespaces/inkscape"
   id="svg2"
   version="1.1"
   inkscape:version="0.48.5 r10040"
   width="524.60205"
   height="153.89635"
   xml:space="preserve"
   sodipodi:docname="aspgems.svg"><metadata
     id="metadata8"><rdf:RDF><cc:Work
         rdf:about=""><dc:format>image/svg+xml</dc:format><dc:type
           rdf:resource="http://purl.org/dc/dcmitype/StillImage" /><dc:title /></cc:Work></rdf:RDF></metadata><defs
     id="defs6"><clipPath
       clipPathUnits="userSpaceOnUse"
       id="clipPath16"><path
         d="m 0,595.281 419.53,0 L 419.53,0 0,0 0,595.281 z"
         id="path18"
         inkscape:connector-curvature="0" /></clipPath></defs><sodipodi:namedview
     pagecolor="#ffffff"
     bordercolor="#666666"
     borderopacity="1"
     objecttolerance="10"
     gridtolerance="10"
     guidetolerance="10"
     inkscape:pageopacity="0"
     inkscape:pageshadow="2"
     inkscape:window-width="1920"
     inkscape:window-height="1148"
     id="namedview4"
     showgrid="false"
     inkscape:zoom="1.7941343"
     inkscape:cx="176.91754"
     inkscape:cy="-63.564819"
     inkscape:window-x="1366"
     inkscape:window-y="27"
     inkscape:window-maximized="1"
     inkscape:current-layer="g10"
     fit-margin-top="0"
     fit-margin-left="0"
     fit-margin-right="0"
     fit-margin-bottom="0" /><g
     id="g10"
     inkscape:groupmode="layer"
     inkscape:label="aspgems_logotipo"
     transform="matrix(1.25,0,0,-1.25,0.09303087,743.90379)"><g
       id="g3156"
       transform="matrix(1.5500599,0,0,1.5500599,-131.28095,-140.04682)"><g
         transform="translate(191.3843,419.0498)"
         id="g20"><path
           inkscape:connector-curvature="0"
           id="path22"
           style="fill:#373535;fill-opacity:1;fill-rule:nonzero;stroke:none"
           d="M 0,0 C 2.495,0 4.5,0.864 6.012,2.592 7.524,4.32 8.28,6.984 8.28,10.584 8.28,17.928 5.688,21.6 0.504,21.6 c -3.216,0 -5.497,-1.008 -6.84,-3.024 -1.345,-2.016 -2.016,-4.824 -2.016,-8.424 0,-2.784 0.684,-5.173 2.052,-7.164 C -4.932,0.996 -2.833,0 0,0 m 18.36,-5.688 c 0,-6.095 -1.692,-10.704 -5.076,-13.824 -3.384,-3.12 -7.932,-4.68 -13.644,-4.68 -4.129,0 -7.801,0.828 -11.016,2.484 -3.216,1.656 -4.824,3.732 -4.824,6.228 0,1.249 0.432,2.304 1.296,3.168 0.864,0.864 1.872,1.296 3.024,1.296 1.343,0 3.011,-0.9 5.004,-2.7 1.991,-1.8 4.043,-2.7 6.156,-2.7 3.263,0 5.58,0.876 6.948,2.628 1.368,1.752 2.052,4.716 2.052,8.892 l 0,2.16 C 7.224,-4.129 5.748,-5.317 3.852,-6.3 1.955,-7.285 0,-7.776 -2.016,-7.776 c -5.425,0 -9.588,1.595 -12.492,4.788 -2.905,3.192 -4.356,7.452 -4.356,12.78 0,6.48 1.559,11.436 4.68,14.868 3.12,3.431 7.056,5.148 11.808,5.148 2.543,0 4.788,-0.553 6.732,-1.656 1.944,-1.105 3.395,-2.641 4.356,-4.608 l 0.144,1.296 c 0,3.312 1.584,4.968 4.752,4.968 3.168,0 4.752,-1.656 4.752,-4.968 l 0,-30.528 z" /></g><g
         transform="translate(243.6553,433.1616)"
         id="g24"><path
           inkscape:connector-curvature="0"
           id="path26"
           style="fill:#373535;fill-opacity:1;fill-rule:nonzero;stroke:none"
           d="m 0,0 c -0.287,2.448 -1.26,4.452 -2.916,6.012 -1.656,1.559 -3.636,2.34 -5.939,2.34 -2.592,0 -4.693,-0.732 -6.301,-2.196 C -16.764,4.691 -17.855,2.639 -18.432,0 L 0,0 z m -18.432,-6.048 c 0,-2.833 0.864,-5.137 2.592,-6.912 1.729,-1.776 4.104,-2.664 7.129,-2.664 2.927,0 5.399,0.864 7.416,2.592 2.016,1.728 3.599,2.592 4.751,2.592 1.199,0 2.221,-0.421 3.061,-1.26 0.839,-0.841 1.259,-1.789 1.259,-2.844 0,-2.88 -1.8,-5.148 -5.4,-6.804 -3.6,-1.656 -7.296,-2.484 -11.087,-2.484 -6.768,0 -11.834,1.883 -15.193,5.652 -3.36,3.767 -5.039,8.244 -5.039,13.428 0,6.192 1.763,11.148 5.291,14.868 3.529,3.719 8.388,5.58 14.58,5.58 5.76,0 10.368,-1.704 13.825,-5.112 3.455,-3.409 5.184,-7.441 5.184,-12.096 0,-1.777 -0.313,-2.977 -0.936,-3.6 -0.625,-0.624 -1.85,-0.936 -3.672,-0.936 l -23.761,0 z" /></g><g
         transform="translate(258.5596,443.6016)"
         id="g28"><path
           inkscape:connector-curvature="0"
           id="path30"
           style="fill:#373535;fill-opacity:1;fill-rule:nonzero;stroke:none"
           d="m 0,0 c 0,1.584 0.433,2.855 1.296,3.816 0.864,0.96 2.088,1.44 3.672,1.44 1.536,0 2.748,-0.468 3.636,-1.404 C 9.492,2.916 9.937,1.631 9.937,0 l 0,-1.368 c 1.439,2.112 3.263,3.744 5.471,4.896 2.207,1.152 4.655,1.728 7.344,1.728 2.063,0 4.032,-0.54 5.904,-1.62 1.872,-1.08 3.264,-2.748 4.176,-5.004 1.536,2.16 3.3,3.804 5.292,4.932 1.991,1.127 4.356,1.692 7.092,1.692 3.984,0 7.164,-1.008 9.54,-3.024 2.376,-2.016 3.564,-5.256 3.564,-9.72 l 0,-21.528 c 0,-1.584 -0.396,-2.856 -1.188,-3.816 -0.792,-0.96 -2.149,-1.44 -4.068,-1.44 -1.92,0 -3.276,0.48 -4.068,1.44 -0.792,0.96 -1.187,2.232 -1.187,3.816 l 0,18.864 c 0,2.016 -0.469,3.647 -1.405,4.896 -0.936,1.248 -2.388,1.872 -4.356,1.872 -2.065,0 -3.852,-0.756 -5.363,-2.268 -1.513,-1.512 -2.269,-3.468 -2.269,-5.868 l 0,-17.496 c 0,-1.584 -0.395,-2.856 -1.187,-3.816 -0.792,-0.96 -2.15,-1.44 -4.069,-1.44 -1.92,0 -3.276,0.48 -4.068,1.44 -0.792,0.96 -1.188,2.232 -1.188,3.816 l 0,18.864 c 0,2.016 -0.467,3.647 -1.404,4.896 -0.936,1.248 -2.388,1.872 -4.355,1.872 -2.065,0 -3.853,-0.756 -5.365,-2.268 -1.511,-1.512 -2.267,-3.468 -2.267,-5.868 l 0,-17.496 c 0,-1.584 -0.397,-2.856 -1.189,-3.816 -0.792,-0.96 -2.148,-1.44 -4.068,-1.44 -1.92,0 -3.276,0.48 -4.068,1.44 C 0.396,-31.872 0,-30.6 0,-29.016 L 0,0 z" /></g><g
         transform="translate(337.543,448.8574)"
         id="g32"><path
           inkscape:connector-curvature="0"
           id="path34"
           style="fill:#373535;fill-opacity:1;fill-rule:nonzero;stroke:none"
           d="m 0,0 c 4.224,0 7.956,-0.745 11.196,-2.232 3.24,-1.488 4.86,-3.409 4.86,-5.76 0,-1.296 -0.396,-2.388 -1.188,-3.276 -0.792,-0.889 -1.861,-1.332 -3.204,-1.332 -1.152,0 -2.653,0.804 -4.5,2.412 -1.849,1.608 -3.973,2.412 -6.372,2.412 -1.969,0 -3.469,-0.264 -4.5,-0.792 -1.033,-0.529 -1.548,-1.344 -1.548,-2.448 0,-1.105 0.432,-1.897 1.296,-2.376 0.864,-0.48 2.304,-0.936 4.32,-1.368 l 4.392,-1.008 c 4.991,-1.152 8.424,-2.664 10.296,-4.536 1.872,-1.872 2.807,-4.104 2.807,-6.696 0,-3.984 -1.619,-7.068 -4.859,-9.252 -3.24,-2.185 -7.02,-3.276 -11.34,-3.276 -4.752,0 -8.844,0.925 -12.276,2.772 -3.433,1.847 -5.149,4.068 -5.149,6.66 0,1.2 0.361,2.232 1.081,3.096 0.72,0.864 1.775,1.296 3.167,1.296 1.2,0 2.905,-1.08 5.113,-3.24 2.207,-2.16 4.752,-3.24 7.632,-3.24 1.872,0 3.359,0.36 4.464,1.08 1.104,0.72 1.656,1.631 1.656,2.736 0,1.392 -0.552,2.292 -1.656,2.7 -1.105,0.407 -2.569,0.852 -4.392,1.332 l -6.192,1.512 c -3.457,0.864 -6.132,2.112 -8.028,3.744 -1.897,1.631 -2.845,4.08 -2.845,7.344 0,3.984 1.573,6.936 4.717,8.856 C -7.909,-0.96 -4.225,0 0,0" /></g><g
         transform="translate(189.5259,469.5791)"
         id="g36"><path
           inkscape:connector-curvature="0"
           id="path38"
           style="fill:#373535;fill-opacity:1;fill-rule:nonzero;stroke:none"
           d="m 0,0 -2.574,-7.54 4.992,0 L 0,0 z m -2.574,3.326 c 0.173,0.469 0.429,0.803 0.767,1.003 0.338,0.199 0.776,0.299 1.313,0.299 l 1.014,0 C 1.092,4.628 1.56,4.523 1.924,4.315 2.288,4.107 2.583,3.691 2.808,3.066 l 5.148,-14.345 c 0.017,-0.035 0.091,-0.265 0.221,-0.69 0.13,-0.426 0.195,-0.742 0.195,-0.95 0,-0.539 -0.195,-0.985 -0.585,-1.341 -0.39,-0.356 -0.862,-0.534 -1.417,-0.534 -0.988,0 -1.629,0.39 -1.924,1.17 l -1.092,3.12 -6.864,0 -1.118,-3.12 c -0.26,-0.78 -0.893,-1.17 -1.898,-1.17 -0.589,0 -1.066,0.165 -1.43,0.494 -0.364,0.33 -0.546,0.79 -0.546,1.381 0,0.242 0.03,0.468 0.091,0.676 0.061,0.208 0.169,0.53 0.325,0.964 l 5.512,14.605 z" /></g><g
         transform="translate(209.208,465.9648)"
         id="g40"><path
           inkscape:connector-curvature="0"
           id="path42"
           style="fill:#373535;fill-opacity:1;fill-rule:nonzero;stroke:none"
           d="m 0,0 c 1.802,-0.399 3.067,-1.079 3.796,-2.041 0.728,-0.962 1.092,-2.076 1.092,-3.341 0,-1.768 -0.657,-3.194 -1.969,-4.277 -1.314,-1.083 -3.213,-1.625 -5.702,-1.625 -2.488,0 -4.409,0.494 -5.765,1.482 -1.356,0.988 -2.034,2.071 -2.034,3.25 0,0.52 0.164,0.945 0.492,1.274 0.327,0.329 0.759,0.494 1.294,0.494 0.604,0 1.354,-0.563 2.251,-1.69 0.897,-1.127 2.148,-1.69 3.753,-1.69 1.052,0 1.884,0.243 2.497,0.728 0.612,0.485 0.919,1.066 0.919,1.742 0,0.433 -0.135,0.823 -0.403,1.17 -0.269,0.347 -0.741,0.607 -1.417,0.78 l -4.81,1.222 c -1.768,0.451 -2.973,1.118 -3.614,2.002 -0.642,0.884 -0.962,1.924 -0.962,3.12 0,1.924 0.732,3.358 2.197,4.303 1.465,0.945 3.219,1.417 5.265,1.417 1.75,0 3.397,-0.429 4.939,-1.287 C 3.362,6.175 4.134,5.148 4.134,3.952 4.134,3.432 3.946,3.021 3.575,2.717 3.202,2.414 2.738,2.262 2.185,2.262 1.698,2.262 1.018,2.726 0.143,3.653 -0.732,4.58 -1.916,5.044 -3.406,5.044 -4.377,5.044 -5.131,4.845 -5.668,4.446 -6.206,4.047 -6.474,3.51 -6.474,2.834 c 0,-0.572 0.255,-1.001 0.767,-1.287 0.511,-0.286 1.226,-0.533 2.145,-0.741 L 0,0 z" /></g><g
         transform="translate(220.8809,465.2632)"
         id="g44"><path
           inkscape:connector-curvature="0"
           id="path46"
           style="fill:#373535;fill-opacity:1;fill-rule:nonzero;stroke:none"
           d="M 0,0 3.979,0 C 4.863,0 5.582,0.238 6.137,0.715 6.691,1.191 6.969,1.837 6.969,2.652 6.969,3.57 6.674,4.242 6.084,4.667 5.494,5.091 4.646,5.304 3.537,5.304 L 0,5.304 0,0 z m -4.264,6.084 c 0,0.901 0.217,1.542 0.651,1.924 0.433,0.381 1.049,0.572 1.845,0.572 l 6.526,0 c 1.906,0 3.463,-0.494 4.668,-1.482 1.205,-0.988 1.806,-2.47 1.806,-4.446 0,-1.751 -0.576,-3.176 -1.728,-4.277 C 8.35,-2.726 6.76,-3.276 4.732,-3.276 l -4.732,0 0,-5.07 c 0,-0.624 -0.191,-1.135 -0.572,-1.534 -0.381,-0.399 -0.901,-0.598 -1.559,-0.598 -0.66,0 -1.18,0.191 -1.56,0.572 -0.381,0.381 -0.573,0.901 -0.573,1.56 l 0,14.43 z" /></g><g
         transform="translate(124.3311,405.8745)"
         id="g48"><path
           inkscape:connector-curvature="0"
           id="path50"
           style="fill:#373535;fill-opacity:1;fill-rule:nonzero;stroke:none"
           d="m 0,0 c -16.044,0 -29.05,13.006 -29.05,29.052 0,16.042 13.006,29.049 29.05,29.049 16.044,0 29.05,-13.007 29.05,-29.049 C 29.05,13.006 16.044,0 0,0 m 0,68.353 c -21.917,0 -39.685,-17.768 -39.685,-39.684 0,-21.919 17.768,-39.686 39.685,-39.686 21.917,0 39.685,17.767 39.685,39.686 0,21.916 -17.768,39.684 -39.685,39.684" /></g><g
         transform="translate(117.9531,438.9966)"
         id="g52"><path
           inkscape:connector-curvature="0"
           id="path54"
           style="fill:#373535;fill-opacity:1;fill-rule:nonzero;stroke:none"
           d="m 0,0 c 0,-2.35 -1.904,-4.252 -4.252,-4.252 -2.348,0 -4.252,1.902 -4.252,4.252 0,2.347 1.904,4.251 4.252,4.251 C -1.904,4.251 0,2.347 0,0" /></g><g
         transform="translate(139.2129,438.9966)"
         id="g56"><path
           inkscape:connector-curvature="0"
           id="path58"
           style="fill:#373535;fill-opacity:1;fill-rule:nonzero;stroke:none"
           d="m 0,0 c 0,-2.35 -1.904,-4.252 -4.252,-4.252 -2.348,0 -4.252,1.902 -4.252,4.252 0,2.347 1.904,4.251 4.252,4.251 C -1.904,4.251 0,2.347 0,0" /></g></g></g></svg>