<?xml version="1.0" encoding="UTF-8" standalone="no"?>
<svg width="806px" height="156px" viewBox="0 0 806 156" version="1.1" xmlns="http://www.w3.org/2000/svg" xmlns:xlink="http://www.w3.org/1999/xlink">
    <!-- Generator: Sketch 39.1 (31720) - http://www.bohemiancoding.com/sketch -->
    <title>BeBanjo</title>
    <desc>Created with Sketch.</desc>
    <defs></defs>
    <g id="Page-1" stroke="none" stroke-width="1" fill="none" fill-rule="evenodd">
        <g id="BeBanjo" fill="#000000">
            <g id="Group">
                <path d="M297.7852,124.124 L256.5278,124.124 L267.5101,19.1828 L304.3139,19.1828 C321.5296,19.1828 340.5251,23.1901 340.5251,43.9707 C340.5251,53.7674 336.2212,61.782 327.9106,66.8289 L327.763,67.1263 C337.1131,70.5389 343.4941,78.8508 343.4941,88.9447 C343.4941,115.5148 320.7874,124.124 297.7852,124.124 L297.7852,124.124 Z M297.6375,78.8527 L286.6533,78.8527 L283.9816,104.3849 L296.7437,104.3849 C307.5764,104.3849 317.6687,103.1975 317.6687,90.1341 C317.6707,79.2977 305.7965,78.8527 297.6375,78.8527 L297.6375,78.8527 Z M298.6751,38.4787 L290.9591,38.4787 L288.437,61.6342 L297.4898,61.6342 C308.1748,61.6342 314.7055,58.9621 314.7055,47.533 C314.7016,38.6283 305.3535,38.4787 298.6751,38.4787 L298.6751,38.4787 Z" id="Fill-17"></path>
                <path d="M394.1054,89.4473 L374.9622,95.2367 L374.9622,96.871 C375.1099,102.8081 377.0394,105.4783 381.7882,105.4783 C386.8344,105.4783 394.9973,102.6585 405.9796,96.7233 L414.4377,113.0498 C402.2683,121.0663 390.9887,125.8159 375.7045,125.8159 C353.8876,125.8159 350.0287,108.5956 350.0287,94.4962 C350.0287,68.8163 363.8303,40.7634 395.5899,40.7634 C415.0323,40.7634 422.6006,51.005 422.6006,62.4361 C422.5987,78.3156 408.3521,84.995 394.1054,89.4473 L394.1054,89.4473 Z M394.9954,59.9097 C387.7244,59.9097 379.7092,66.1441 377.187,76.8308 L393.9578,70.4487 C398.1121,68.8143 399.1516,66.5891 399.1516,63.4719 C399.1516,61.8376 397.6652,59.9097 394.9954,59.9097 L394.9954,59.9097 Z" id="Fill-18"></path>
                <path d="M468.0046,124.124 L426.7473,124.124 L437.7296,19.1828 L474.5334,19.1828 C491.7491,19.1828 510.7446,23.1901 510.7446,43.9707 C510.7446,53.7674 506.4407,61.782 498.1301,66.8289 L497.9824,67.1263 C507.3325,70.5389 513.7136,78.8508 513.7136,88.9447 C513.7136,115.5148 491.0068,124.124 468.0046,124.124 L468.0046,124.124 Z M467.855,78.8527 L456.8708,78.8527 L454.1992,104.3849 L466.9613,104.3849 C477.7939,104.3849 487.8863,103.1975 487.8863,90.1341 C487.8901,79.2977 476.016,78.8527 467.855,78.8527 L467.855,78.8527 Z M468.8927,38.4787 L461.1767,38.4787 L458.6546,61.6342 L467.7074,61.6342 C478.3924,61.6342 484.923,58.9621 484.923,47.533 C484.9211,38.6283 475.5729,38.4787 468.8927,38.4787 L468.8927,38.4787 Z" id="Fill-19"></path>
                <path d="M587.3289,122.8464 L562.5449,122.8464 L563.5826,113.1994 C556.6069,120.0266 549.7809,124.6285 541.9153,124.6285 C525.1446,124.6285 520.248,112.9021 520.248,95.979 C520.248,62.1368 542.8052,40.7634 574.8621,40.7634 C580.056,40.7634 588.9611,41.358 595.4917,42.3977 L587.3289,122.8464 L587.3289,122.8464 Z M568.3334,61.099 C556.6088,61.6937 545.0339,73.8632 545.0339,95.0909 C545.0339,99.0981 545.7762,102.9577 549.1882,102.9577 C553.6398,102.9577 560.7651,98.3577 565.514,94.7935 L568.9279,61.1009 L568.3334,61.1009 L568.3334,61.099 Z" id="Fill-20"></path>
                <path d="M671.8074,123.8842 L647.0235,123.8842 L652.812,69.854 C653.2569,66.1441 652.6642,64.6593 650.8824,64.6593 C645.984,64.6593 635.4486,68.5189 632.1843,69.854 L626.5455,123.8842 L601.7615,123.8842 L610.3674,42.8409 L635.1514,42.8409 L634.2614,50.7077 C640.3471,46.8481 651.6248,40.7634 660.3802,40.7634 C674.7765,40.7634 679.9703,45.513 677.8931,65.4036 L671.8074,123.8842 L671.8074,123.8842 Z" id="Fill-21"></path>
                <path d="M714.2119,123.0479 C711.3905,151.1027 697.1458,156 678.7429,156 C672.9545,156 664.7935,154.5172 659.3005,152.1404 L665.6815,133.1418 C668.2037,133.7365 674.1398,135.0716 678.7429,135.0716 C685.124,135.0716 688.536,132.9941 689.7252,122.9001 L698.1834,42.3018 L722.8196,42.3018 L714.2119,123.0479 L714.2119,123.0479 Z M711.3905,34.2873 L696.1043,17.0688 L714.9521,0 L730.386,17.0688 L711.3905,34.2873 L711.3905,34.2873 Z" id="Fill-22"></path>
                <path d="M760.7341,125.3708 C740.1063,125.3708 728.8268,112.6047 728.8268,93.4565 C728.8268,63.9208 744.8533,40.7634 774.2385,40.7634 C795.6104,40.7634 805.9999,54.5673 805.9999,72.3785 C805.998,91.9737 796.9433,125.3708 760.7341,125.3708 L760.7341,125.3708 Z M770.2318,60.3566 C762.6635,60.3566 754.0557,71.638 754.0557,93.0115 C754.0557,101.3234 758.21,105.1829 764.2957,105.1829 C771.2714,105.1829 781.0645,95.089 781.0645,72.0831 C781.0645,61.8414 776.0183,60.3566 770.2318,60.3566 L770.2318,60.3566 Z" id="Fill-23"></path>
                <path d="M50.3466,82.7928 C50.3466,93.0844 72.0522,101.145 99.763,101.145 C126.8887,101.145 147.6392,93.6023 148.0305,83.6023 L148.0477,82.7161 L148.0477,58.5477 C148.0477,31.5537 126.1331,9.5914 99.1972,9.5914 C72.2632,9.5914 50.3485,31.5518 50.3485,58.5477 L50.3485,82.7928 L50.3466,82.7928 Z" id="Fill-24"></path>
                <path d="M190.9987,76.731 C183.7008,76.731 173.6487,78.7433 162.0086,81.074 C160.106,81.4539 158.1343,81.8471 156.132,82.2422 L156.13,84.9048 C155.453,102.1923 127.5504,109.8942 100.1945,109.8942 C71.7798,109.8942 43.1063,101.847 43.1063,83.867 L43.1063,81.4788 C42.435,81.3445 41.7311,81.2045 41.0713,81.074 C29.435,78.7433 19.3849,76.731 12.087,76.731 C3.0515,76.731 0,79.3802 0,87.226 C0,102.0849 46.1175,141.4671 101.5332,141.4671 C156.9586,141.4671 203.0837,102.0849 203.0837,87.226 C203.0856,79.3802 200.0361,76.731 190.9987,76.731 L190.9987,76.731 Z" id="Fill-25"></path>
            </g>
        </g>
    </g>
</svg>