<?xml version="1.0" encoding="UTF-8" standalone="no"?>
<!-- Created with Inkscape (http://www.inkscape.org/) -->

<svg
   xmlns:dc="http://purl.org/dc/elements/1.1/"
   xmlns:cc="http://creativecommons.org/ns#"
   xmlns:rdf="http://www.w3.org/1999/02/22-rdf-syntax-ns#"
   xmlns:svg="http://www.w3.org/2000/svg"
   xmlns="http://www.w3.org/2000/svg"
   xmlns:sodipodi="http://sodipodi.sourceforge.net/DTD/sodipodi-0.dtd"
   xmlns:inkscape="http://www.inkscape.org/namespaces/inkscape"
   version="1.1"
   width="218.7394mm"
   height="54.685444mm"
   id="svg2"
   inkscape:version="0.91 r13725"
   sodipodi:docname="besepa.svg">
  <sodipodi:namedview
     pagecolor="#ffffff"
     bordercolor="#666666"
     borderopacity="1"
     objecttolerance="10"
     gridtolerance="10"
     guidetolerance="10"
     inkscape:pageopacity="0"
     inkscape:pageshadow="2"
     inkscape:window-width="1920"
     inkscape:window-height="1015"
     id="namedview8"
     showgrid="false"
     inkscape:zoom="1.2685914"
     inkscape:cx="319.95493"
     inkscape:cy="-46.240743"
     inkscape:window-x="0"
     inkscape:window-y="28"
     inkscape:window-maximized="1"
     inkscape:current-layer="svg2"
     fit-margin-top="5"
     fit-margin-left="5"
     fit-margin-bottom="5"
     fit-margin-right="5" />
  <defs
     id="defs4" />
  <metadata
     id="metadata7">
    <rdf:RDF>
      <cc:Work
         rdf:about="">
        <dc:format>image/svg+xml</dc:format>
        <dc:type
           rdf:resource="http://purl.org/dc/dcmitype/StillImage" />
        <dc:title></dc:title>
      </cc:Work>
    </rdf:RDF>
  </metadata>
  <g
     id="layer1"
     transform="matrix(1.5399768,0,0,1.5399768,-190.25955,-764.12507)">
    <g
       style="font-style:normal;font-weight:normal;font-size:40px;line-height:125%;font-family:Sans;letter-spacing:0px;word-spacing:0px;fill:#000000;fill-opacity:1;stroke:none"
       id="text2985">
      <path
         d="m 172.77944,559.249 q 2.016,2.016 3.024,4.752 1.008,2.736 1.008,6.048 l 0,21.312 q 0,3.744 -1.44,7.056 -1.44,3.312 -3.888,5.76 -2.448,2.448 -5.76,3.888 -3.312,1.44 -7.056,1.44 l -21.6,0 q -2.016,0 -2.016,-2.016 l 0,-96.768 q 0,-2.016 2.016,-2.016 l 21.6,0 q 3.744,0 7.056,1.44 3.312,1.44 5.76,3.888 2.448,2.448 3.888,5.76 1.44,3.312 1.44,7.056 l 0,14.4 q 0,6.624 -4.032,11.088 -2.16,2.304 -5.184,3.744 3.168,1.152 5.184,3.168 z m -12.816,8.496 q 0,-1.44 -1.008,-2.448 -1.008,-1.008 -2.448,-1.008 l -4.608,0 0,29.808 4.608,0 q 1.44,0 2.448,-1.008 1.008,-1.008 1.008,-2.448 l 0,-22.896 z m 0,-40.176 q 0,-1.44 -1.008,-2.448 -1.008,-1.008 -2.448,-1.008 l -4.608,0 0,24.48 4.608,0 q 1.44,0 2.448,-1.008 1.008,-1.008 1.008,-2.448 l 0,-17.568 z"
         style="font-style:normal;font-variant:normal;font-weight:bold;font-stretch:normal;font-size:144px;font-family:Franchise;-inkscape-font-specification:'Franchise Bold';fill:#6d0d0b;fill-opacity:1"
         id="path4137"
         inkscape:connector-curvature="0" />
      <path
         d="m 220.90919,592.657 q 2.016,0 2.016,2.016 l 0,12.816 q 0,2.016 -2.016,2.016 l -31.248,0 q -2.016,0 -2.016,-2.016 l 0,-96.768 q 0,-2.016 2.016,-2.016 l 31.248,0 q 2.016,0 2.016,2.016 l 0,12.816 q 0,2.016 -2.016,2.016 l -16.416,0 0,20.736 14.256,0 q 2.016,0 2.016,2.016 l 0,12.816 q 0,2.016 -2.016,2.016 l -14.256,0 0,29.52 16.416,0 0,0 z"
         style="font-style:normal;font-variant:normal;font-weight:bold;font-stretch:normal;font-size:144px;font-family:Franchise;-inkscape-font-specification:'Franchise Bold';fill:#6d0d0b;fill-opacity:1"
         id="path4139"
         inkscape:connector-curvature="0" />
      <path
         d="m 255.36682,507.697 q 3.744,0 7.056,1.44 3.312,1.44 5.76,3.888 2.448,2.448 3.888,5.76 1.44,3.312 1.44,7.056 l 0,5.472 q 0,2.016 -1.872,2.592 l -13.104,3.456 q -1.872,0.576 -1.872,-1.44 l 0,-9.36 q 0,-1.44 -1.008,-2.448 -1.008,-1.008 -2.448,-1.008 l -1.152,0 q -1.44,0 -2.448,1.008 -1.008,1.008 -1.008,2.448 l 0,13.104 q 0.144,1.584 0.576,2.736 0.432,1.152 1.584,2.304 l 18.864,14.112 q 2.304,2.016 2.88,4.176 0.72,2.016 1.008,4.608 l 0,24.768 q 0,3.744 -1.44,7.056 -1.44,3.312 -3.888,5.76 -2.448,2.448 -5.76,3.888 -3.312,1.44 -7.056,1.44 l -5.472,0 q -3.744,0 -7.056,-1.44 -3.312,-1.44 -5.76,-3.888 -2.448,-2.448 -3.888,-5.76 -1.44,-3.312 -1.44,-7.056 l 0,-13.824 q 0,-2.016 1.872,-2.592 l 13.104,-3.456 q 1.872,-0.576 1.872,1.44 l 0,17.712 q 0,1.44 1.008,2.448 1.008,1.008 2.448,1.008 l 1.152,0 q 1.44,0 2.448,-1.008 1.008,-1.008 1.008,-2.448 l 0,-19.008 q -0.144,-1.872 -0.576,-3.312 -0.432,-1.44 -1.728,-2.592 l -18.576,-14.256 q -2.16,-2.016 -3.168,-4.032 -0.864,-2.016 -0.864,-5.328 l 0,-17.28 q 0,-3.744 1.44,-7.056 1.44,-3.312 3.888,-5.76 2.448,-2.448 5.76,-3.888 3.312,-1.44 7.056,-1.44 l 5.472,0 0,0 z"
         style="font-style:normal;font-variant:normal;font-weight:bold;font-stretch:normal;font-size:144px;font-family:Franchise;-inkscape-font-specification:'Franchise Bold';fill:#6d0d0b;fill-opacity:1"
         id="path4141"
         inkscape:connector-curvature="0" />
      <path
         d="m 317.65919,592.657 q 2.016,0 2.016,2.016 l 0,12.816 q 0,2.016 -2.016,2.016 l -31.248,0 q -2.016,0 -2.016,-2.016 l 0,-96.768 q 0,-2.016 2.016,-2.016 l 31.248,0 q 2.016,0 2.016,2.016 l 0,12.816 q 0,2.016 -2.016,2.016 l -16.416,0 0,20.736 14.256,0 q 2.016,0 2.016,2.016 l 0,12.816 q 0,2.016 -2.016,2.016 l -14.256,0 0,29.52 16.416,0 0,0 z"
         style="font-style:normal;font-variant:normal;font-weight:bold;font-stretch:normal;font-size:144px;font-family:Franchise;-inkscape-font-specification:'Franchise Bold';fill:#6d0d0b;fill-opacity:1"
         id="path4143"
         inkscape:connector-curvature="0" />
      <path
         d="m 355.54244,508.705 q 3.744,0 7.056,1.44 3.312,1.44 5.76,3.888 2.448,2.448 3.888,5.76 1.44,3.312 1.44,7.056 l 0,23.472 q 0,3.744 -1.44,7.056 -1.44,3.312 -3.888,5.76 -2.448,2.448 -5.76,3.888 -3.312,1.44 -7.056,1.44 l -6.768,0 0,39.024 q 0,2.016 -2.016,2.016 l -12.816,0 q -2.016,0 -2.016,-2.016 l 0,-96.768 q 0,-2.016 2.016,-2.016 l 21.6,0 z m 1.296,18.864 q 0,-1.44 -1.008,-2.448 -1.008,-1.008 -2.448,-1.008 l -4.608,0 0,28.944 4.608,0 q 1.44,0 2.448,-1.008 1.008,-1.008 1.008,-2.448 l 0,-22.032 z"
         style="font-style:normal;font-variant:normal;font-weight:bold;font-stretch:normal;font-size:144px;font-family:Franchise;-inkscape-font-specification:'Franchise Bold';fill:#6d0d0b;fill-opacity:1"
         id="path4145"
         inkscape:connector-curvature="0" />
      <path
         d="m 422.62394,607.489 q 0.288,2.016 -1.728,2.016 l -13.104,0 q -1.872,0 -2.16,-2.016 l -1.152,-15.552 -8.928,0 -1.152,15.552 q -0.288,2.016 -2.16,2.016 l -13.104,0 q -2.016,0 -1.728,-2.016 l 10.8,-96.768 q 0.288,-2.016 2.304,-2.016 l 19.008,0 q 2.016,0 2.304,2.016 l 10.8,96.768 z m -19.296,-31.68 -2.736,-39.024 -1.152,0 -2.736,39.024 6.624,0 z"
         style="font-style:normal;font-variant:normal;font-weight:bold;font-stretch:normal;font-size:144px;font-family:Franchise;-inkscape-font-specification:'Franchise Bold';fill:#6d0d0b;fill-opacity:1"
         id="path4147"
         inkscape:connector-curvature="0" />
      <path
         d="m 428.45144,601.297 q 0,-3.744 2.736,-6.48 2.736,-2.736 6.48,-2.736 3.744,0 6.48,2.736 2.736,2.736 2.736,6.48 0,3.744 -2.736,6.48 -2.736,2.736 -6.48,2.736 -3.744,0 -6.48,-2.736 -2.736,-2.736 -2.736,-6.48 z"
         style="font-style:normal;font-variant:normal;font-weight:bold;font-stretch:normal;font-size:144px;font-family:Franchise;-inkscape-font-specification:'Franchise Bold';fill:#6d0d0b;fill-opacity:1"
         id="path4149"
         inkscape:connector-curvature="0" />
      <path
         d="m 478.41494,507.697 q 3.744,0 7.056,1.44 3.312,1.44 5.76,3.888 2.448,2.448 3.888,5.76 1.44,3.312 1.44,7.056 l 0,11.52 q 0,2.016 -1.872,2.592 l -13.104,2.016 q -1.872,0.576 -1.872,-1.44 l 0,-13.968 q 0,-1.44 -1.008,-2.448 -1.008,-1.008 -2.448,-1.008 l -1.152,0 q -1.44,0 -2.448,1.008 -1.008,1.008 -1.008,2.448 l 0,65.088 q 0,1.44 1.008,2.448 1.008,1.008 2.448,1.008 l 1.152,0 q 1.44,0 2.448,-1.008 1.008,-1.008 1.008,-2.448 l 0,-20.16 q 0,-2.016 1.872,-1.44 l 13.104,1.728 q 1.872,0.576 1.872,2.592 l 0,18 q 0,3.744 -1.44,7.056 -1.44,3.312 -3.888,5.76 -2.448,2.448 -5.76,3.888 -3.312,1.44 -7.056,1.44 l -5.472,0 q -3.744,0 -7.056,-1.44 -3.312,-1.44 -5.76,-3.888 -2.448,-2.448 -3.888,-5.76 -1.44,-3.312 -1.44,-7.056 l 0,-66.528 q 0,-3.744 1.44,-7.056 1.44,-3.312 3.888,-5.76 2.448,-2.448 5.76,-3.888 3.312,-1.44 7.056,-1.44 l 5.472,0 0,0 z"
         style="font-style:normal;font-variant:normal;font-weight:bold;font-stretch:normal;font-size:144px;font-family:Franchise;-inkscape-font-specification:'Franchise Bold';fill:#6d0d0b;fill-opacity:1"
         id="path4151"
         inkscape:connector-curvature="0" />
      <path
         d="m 547.74644,592.369 q 0,3.744 -1.44,7.056 -1.44,3.312 -3.888,5.76 -2.448,2.448 -5.76,3.888 -3.312,1.44 -7.056,1.44 l -5.472,0 q -3.744,0 -7.056,-1.44 -3.312,-1.44 -5.76,-3.888 -2.448,-2.448 -3.888,-5.76 -1.44,-3.312 -1.44,-7.056 l 0,-66.528 q 0,-3.744 1.44,-7.056 1.44,-3.312 3.888,-5.76 2.448,-2.448 5.76,-3.888 3.312,-1.44 7.056,-1.44 l 5.472,0 q 3.744,0 7.056,1.44 3.312,1.44 5.76,3.888 2.448,2.448 3.888,5.76 1.44,3.312 1.44,7.056 l 0,66.528 z m -16.848,-65.808 q 0,-1.44 -1.008,-2.448 -1.008,-1.008 -2.448,-1.008 l -1.152,0 q -1.44,0 -2.448,1.008 -1.008,1.008 -1.008,2.448 l 0,65.088 q 0,1.44 1.008,2.448 1.008,1.008 2.448,1.008 l 1.152,0 q 1.44,0 2.448,-1.008 1.008,-1.008 1.008,-2.448 l 0,-65.088 z"
         style="font-style:normal;font-variant:normal;font-weight:bold;font-stretch:normal;font-size:144px;font-family:Franchise;-inkscape-font-specification:'Franchise Bold';fill:#6d0d0b;fill-opacity:1"
         id="path4153"
         inkscape:connector-curvature="0" />
      <path
         d="m 613.32044,508.705 q 2.016,0 2.016,2.016 l 0,96.768 q 0,2.016 -2.016,2.016 l -13.824,0 q -2.016,0 -2.016,-2.016 l 0,-45.504 -9.504,37.152 q -0.288,0.72 -0.72,0.72 -0.432,0 -0.72,-0.72 l -9.504,-37.152 0,45.504 q 0,2.016 -2.016,2.016 l -13.824,0 q -2.016,0 -2.016,-2.016 l 0,-96.768 q 0,-2.016 2.016,-2.016 l 12.24,0 q 0.864,0 1.44,0.72 0.72,0.576 1.008,1.296 l 11.376,51.552 11.376,-51.552 q 0.288,-0.72 0.864,-1.296 0.72,-0.72 1.584,-0.72 l 12.24,0 0,0 z"
         style="font-style:normal;font-variant:normal;font-weight:bold;font-stretch:normal;font-size:144px;font-family:Franchise;-inkscape-font-specification:'Franchise Bold';fill:#6d0d0b;fill-opacity:1"
         id="path4155"
         inkscape:connector-curvature="0" />
    </g>
  </g>
</svg>
