<?xml version="1.0" encoding="UTF-8" standalone="no"?>
<!-- Created with Inkscape (http://www.inkscape.org/) -->

<svg
   xmlns:dc="http://purl.org/dc/elements/1.1/"
   xmlns:cc="http://creativecommons.org/ns#"
   xmlns:rdf="http://www.w3.org/1999/02/22-rdf-syntax-ns#"
   xmlns:svg="http://www.w3.org/2000/svg"
   xmlns="http://www.w3.org/2000/svg"
   xmlns:sodipodi="http://sodipodi.sourceforge.net/DTD/sodipodi-0.dtd"
   xmlns:inkscape="http://www.inkscape.org/namespaces/inkscape"
   id="svg2"
   version="1.1"
   inkscape:version="0.91 r13725"
   xml:space="preserve"
   width="1556.2509"
   height="458.23874"
   viewBox="0 0 1556.2508 458.23872"
   sodipodi:docname="cabify.svg"><metadata
     id="metadata8"><rdf:RDF><cc:Work
         rdf:about=""><dc:format>image/svg+xml</dc:format><dc:type
           rdf:resource="http://purl.org/dc/dcmitype/StillImage" /><dc:title></dc:title></cc:Work></rdf:RDF></metadata><defs
     id="defs6"><clipPath
       clipPathUnits="userSpaceOnUse"
       id="clipPath16"><path
         d="m 0,907.086 1275.59,0 L 1275.59,0 0,0 0,907.086 Z"
         id="path18"
         inkscape:connector-curvature="0" /></clipPath></defs><sodipodi:namedview
     pagecolor="#ffffff"
     bordercolor="#666666"
     borderopacity="1"
     objecttolerance="10"
     gridtolerance="10"
     guidetolerance="10"
     inkscape:pageopacity="0"
     inkscape:pageshadow="2"
     inkscape:window-width="1620"
     inkscape:window-height="677"
     id="namedview4"
     showgrid="false"
     fit-margin-top="0"
     fit-margin-left="0"
     fit-margin-right="0"
     fit-margin-bottom="0"
     inkscape:zoom="0.20813902"
     inkscape:cx="778.1254"
     inkscape:cy="229.11948"
     inkscape:window-x="0"
     inkscape:window-y="28"
     inkscape:window-maximized="0"
     inkscape:current-layer="g10" /><g
     id="g10"
     inkscape:groupmode="layer"
     inkscape:label="CabifyLogoNegro_RGB"
     transform="matrix(1.25,0,0,-1.25,-19.118375,796.048)"><g
       id="g12"><g
         id="g14"
         clip-path="url(#clipPath16)"><g
           id="g20"
           transform="translate(221.4297,488.4053)"><path
             d="m 0,0 c 0,-32.057 -25.985,-58.049 -58.046,-58.049 -32.06,0 -58.046,25.992 -58.046,58.049 0,32.06 25.986,58.049 58.046,58.049 C -25.985,58.049 0,32.06 0,0"
             style="fill:#e3a92e;fill-opacity:1;fill-rule:nonzero;stroke:none"
             id="path22"
             inkscape:connector-curvature="0" /></g><g
           id="g24"
           transform="translate(359.2051,509.1333)"><path
             d="M 0,0 C 15.207,41.165 27.905,75.621 30.453,82.626 32.997,75.699 45.938,41.185 61.402,0 L 0,0 Z m 21.182,125.076 -106.596,-290.499 24.016,0 c 4.044,10.426 29.707,79.677 52.949,142.56 l 78.436,0 c 25.422,-67.684 53.578,-142.56 53.578,-142.56 l 24.017,0 -107.444,290.499 -18.956,0 z"
             style="fill:#000000;fill-opacity:1;fill-rule:nonzero;stroke:none"
             id="path26"
             inkscape:connector-curvature="0" /></g><g
           id="g28"
           transform="translate(680.7729,403.9981)"><path
             d="m 0,0 c -3.233,-7.159 -7.591,-13.48 -13.063,-18.957 -5.473,-5.476 -11.942,-9.763 -19.383,-13.133 -7.443,-3.37 -15.374,-5.335 -23.801,-5.335 l -70.851,0 0,119.697 70.851,0 c 8.427,0 16.358,-2.482 23.801,-5.85 7.441,-3.371 13.91,-7.703 19.383,-13.037 C -7.591,58.046 -3.233,51.88 0,44.857 3.224,37.836 4.847,30.54 4.847,22.958 4.847,14.805 3.224,7.165 0,0 m -127.098,207.348 70.851,0 c 7.856,0 15.166,-1.962 21.901,-4.768 6.746,-2.81 12.572,-6.387 17.49,-11.019 4.913,-4.635 8.777,-9.83 11.588,-15.732 2.798,-5.895 4.209,-12.042 4.209,-18.497 0,-7.31 -1.411,-14.034 -4.209,-20.209 -2.811,-6.18 -6.675,-11.575 -11.588,-16.21 -4.918,-4.637 -10.744,-8.487 -17.49,-11.155 -6.735,-2.671 -12.98,-4.623 -21.901,-4.623 l -70.851,0 0,102.213 z M -15.383,93.744 c 10.96,6.744 19.945,15.656 26.966,26.759 7.019,11.092 10.533,23.38 10.533,36.864 0,9.547 -2.042,18.747 -6.109,27.598 -4.073,8.847 -9.687,16.57 -16.853,23.171 -7.164,6.595 -15.451,11.842 -24.859,15.778 -9.417,3.93 -19.589,6.297 -30.542,6.297 l -93.714,0 0,-290.499 86.553,0 7.161,0 c 11.795,0 22.818,2.792 33.067,7.289 10.253,4.488 19.175,10.523 26.758,17.97 7.589,7.436 13.549,16.176 17.908,26.153 4.351,9.964 6.527,20.586 6.527,31.823 0,14.885 -3.862,28.658 -11.583,41.296 -7.731,12.644 -18.327,22.479 -31.813,29.501"
             style="fill:#000000;fill-opacity:1;fill-rule:nonzero;stroke:none"
             id="path30"
             inkscape:connector-curvature="0" /></g><g
           id="g32"
           transform="translate(810.5513,343.71)"><path
             d="m 0,0 22.863,0 0,142.56 98.178,0 0,22.863 -98.178,0 0,103.558 147.94,0 0,21.518 L 0,290.499 0,0 Z"
             style="fill:#000000;fill-opacity:1;fill-rule:nonzero;stroke:none"
             id="path34"
             inkscape:connector-curvature="0" /></g><g
           id="g36"
           transform="translate(1229.9634,634.209)"><path
             d="M 0,0 C -16.853,-22.863 -84.684,-114.588 -101.545,-137.34 L -201.818,0 -232.573,0 c 9.27,-12.104 110.384,-147.126 119.798,-159.765 l 0,-130.734 24.208,0 0,130.42 L 30.332,0 0,0 Z"
             style="fill:#000000;fill-opacity:1;fill-rule:nonzero;stroke:none"
             id="path38"
             inkscape:connector-curvature="0" /></g><g
           id="g40"
           transform="translate(268.4517,383.9414)"><path
             d="m 0,0 -16.833,16.795 c -22.52,-22.577 -53.664,-36.555 -88.078,-36.555 -68.713,0 -124.414,55.705 -124.414,124.412 0,68.713 55.701,124.409 124.414,124.409 34.353,0 65.453,-13.926 87.967,-36.437 l 16.859,16.85 c -26.832,26.829 -63.89,43.423 -104.826,43.423 -81.875,0 -148.246,-66.372 -148.246,-148.245 0,-41.232 16.839,-78.527 44.005,-105.398 L -105.538,-113.694 -0.826,-0.892 c 0.289,0.285 0.581,0.564 0.869,0.85 L 0.001,-0.001 0.043,0.044 C 0.027,0.029 0.013,0.016 0,0"
             style="fill:#000000;fill-opacity:1;fill-rule:nonzero;stroke:none"
             id="path42"
             inkscape:connector-curvature="0" /></g><path
           d="m 743.306,343.71 24.208,0 0,290.499 -24.208,0 0,-290.499 z"
           style="fill:#000000;fill-opacity:1;fill-rule:nonzero;stroke:none"
           id="path44"
           inkscape:connector-curvature="0" /></g></g></g></svg>