<?xml version="1.0" encoding="UTF-8"?>
<!DOCTYPE svg PUBLIC "-//W3C//DTD SVG 1.1//EN" "http://www.w3.org/Graphics/SVG/1.1/DTD/svg11.dtd">
<!-- Creator: CorelDRAW X6 -->
<svg xmlns="http://www.w3.org/2000/svg" xml:space="preserve" width="9.48611in" height="2.11111in" version="1.1" style="shape-rendering:geometricPrecision; text-rendering:geometricPrecision; image-rendering:optimizeQuality; fill-rule:evenodd; clip-rule:evenodd"
viewBox="0 0 9486 2111"
 xmlns:xlink="http://www.w3.org/1999/xlink">
 <defs>
  <style type="text/css">
   <![CDATA[
    .fil0 {fill:#748691;fill-rule:nonzero}
    .fil1 {fill:#CCD435;fill-rule:nonzero}
   ]]>
  </style>
 </defs>
 <g id="Layer_x0020_1">
  <metadata id="CorelCorpID_0Corel-Layer"/>
  <path class="fil0" d="M8547 1255c54,0 97,-38 97,-100 0,-62 -43,-100 -97,-100 -53,0 -95,38 -95,100 0,62 43,100 95,100zm98 -486l-86 141 -43 65c14,-11 35,-17 55,-17 98,0 191,67 191,194 0,115 -84,205 -218,205 -131,0 -210,-90 -210,-205 0,-78 42,-153 71,-204l109 -179 130 0z"/>
  <path class="fil0" d="M8168 786c-21,-20 -60,-17 -60,-17l0 0 -135 0 0 102 92 -1 0 478 124 0 0 -502 0 0c1,-9 1,-40 -21,-61z"/>
  <path class="fil0" d="M9052 786c-21,-20 -60,-17 -60,-17l0 0 -135 0 0 102 92 -1 0 478 124 0 0 -502 0 0c1,-9 1,-40 -21,-61z"/>
  <path class="fil0" d="M3173 1071c-15,0 -33,-1 -41,-2l0 -193c12,-2 31,-3 43,-3 73,0 120,32 120,98 0,69 -46,100 -122,100zm3 -309c-31,0 -61,3 -92,6 -7,1 -17,3 -23,5 -30,12 -51,39 -54,72 0,2 -1,3 -1,3l0 500 126 0 0 -172c12,1 33,2 49,2 130,0 240,-60 240,-207 0,-140 -94,-209 -245,-209z"/>
  <polygon class="fil0" points="3527,770 3651,770 3651,1240 3878,1240 3878,1349 3527,1349 "/>
  <path class="fil0" d="M4258 890l-87 236 172 0 -86 -236zm-124 336l-45 123 -130 0 224 -579 149 0 226 579 -134 0 -45 -123 -246 0z"/>
  <polygon class="fil0" points="4867,1349 4745,1349 4745,878 4567,878 4567,770 5045,770 5045,878 4867,878 "/>
  <polygon class="fil0" points="5192,1349 5192,770 5529,770 5529,878 5316,878 5316,1023 5508,1023 5508,1130 5316,1130 5316,1349 "/>
  <path class="fil0" d="M5939 871c-99,0 -174,74 -174,188 0,114 75,188 174,188 99,0 174,-74 174,-188 0,-114 -75,-188 -174,-188zm0 -111c168,0 301,123 301,299 0,176 -133,299 -301,299 -168,0 -301,-123 -301,-299 0,-176 133,-299 301,-299z"/>
  <path class="fil0" d="M6501 1052l42 0c70,0 116,-26 116,-94 0,-62 -45,-92 -116,-92 -12,0 -32,1 -42,2l0 183zm0 296l-123 0 0 -577c41,-7 111,-12 165,-12 150,0 242,65 242,195 0,84 -48,143 -110,171l165 222 -146 0 -138 -195 -54 0 0 195z"/>
  <polygon class="fil0" points="7263,1349 7139,944 7078,1349 6958,1349 7042,770 7192,770 7322,1194 7448,770 7598,770 7683,1349 7561,1349 7500,944 7376,1349 "/>
  <path class="fil0" d="M937 538c-3,0 -16,0 -19,0 -279,6 -503,231 -507,510 0,1 1,612 1,612 0,43 31,61 68,40l220 -125 232 0c286,-2 516,-234 515,-520 -1,-283 -229,-512 -510,-516z"/>
  <path class="fil1" d="M2042 1574c3,0 16,0 19,0 279,-6 503,-232 507,-510 0,-1 -1,-612 -1,-612 0,-43 -31,-61 -68,-40l-220 125 -232 0c-286,2 -516,234 -515,520 1,283 229,512 510,516z"/>
 </g>
</svg>
